<svg id="visual" viewBox="0 0 2500 1300" width="2500" height="1300" xmlns="http://www.w3.org/2000/svg" xmlns:xlink="http://www.w3.org/1999/xlink" version="1.1"><rect x="0" y="0" width="2500" height="1300" fill="#ffffff"></rect><defs><linearGradient id="grad1_0" x1="48%" y1="0%" x2="100%" y2="100%"><stop offset="11.538461538461538%" stop-color="#9587e3" stop-opacity="1"></stop><stop offset="88.46153846153847%" stop-color="#9587e3" stop-opacity="1"></stop></linearGradient></defs><defs><linearGradient id="grad1_1" x1="48%" y1="0%" x2="100%" y2="100%"><stop offset="11.538461538461538%" stop-color="#9587e3" stop-opacity="1"></stop><stop offset="88.46153846153847%" stop-color="#ac9ee9" stop-opacity="1"></stop></linearGradient></defs><defs><linearGradient id="grad1_2" x1="48%" y1="0%" x2="100%" y2="100%"><stop offset="11.538461538461538%" stop-color="#c1b6ef" stop-opacity="1"></stop><stop offset="88.46153846153847%" stop-color="#ac9ee9" stop-opacity="1"></stop></linearGradient></defs><defs><linearGradient id="grad1_3" x1="48%" y1="0%" x2="100%" y2="100%"><stop offset="11.538461538461538%" stop-color="#c1b6ef" stop-opacity="1"></stop><stop offset="88.46153846153847%" stop-color="#d6cef5" stop-opacity="1"></stop></linearGradient></defs><defs><linearGradient id="grad1_4" x1="48%" y1="0%" x2="100%" y2="100%"><stop offset="11.538461538461538%" stop-color="#ebe6fa" stop-opacity="1"></stop><stop offset="88.46153846153847%" stop-color="#d6cef5" stop-opacity="1"></stop></linearGradient></defs><defs><linearGradient id="grad1_5" x1="48%" y1="0%" x2="100%" y2="100%"><stop offset="11.538461538461538%" stop-color="#ebe6fa" stop-opacity="1"></stop><stop offset="88.46153846153847%" stop-color="#ffffff" stop-opacity="1"></stop></linearGradient></defs><defs><linearGradient id="grad2_0" x1="0%" y1="0%" x2="52%" y2="100%"><stop offset="11.538461538461538%" stop-color="#9587e3" stop-opacity="1"></stop><stop offset="88.46153846153847%" stop-color="#9587e3" stop-opacity="1"></stop></linearGradient></defs><defs><linearGradient id="grad2_1" x1="0%" y1="0%" x2="52%" y2="100%"><stop offset="11.538461538461538%" stop-color="#ac9ee9" stop-opacity="1"></stop><stop offset="88.46153846153847%" stop-color="#9587e3" stop-opacity="1"></stop></linearGradient></defs><defs><linearGradient id="grad2_2" x1="0%" y1="0%" x2="52%" y2="100%"><stop offset="11.538461538461538%" stop-color="#ac9ee9" stop-opacity="1"></stop><stop offset="88.46153846153847%" stop-color="#c1b6ef" stop-opacity="1"></stop></linearGradient></defs><defs><linearGradient id="grad2_3" x1="0%" y1="0%" x2="52%" y2="100%"><stop offset="11.538461538461538%" stop-color="#d6cef5" stop-opacity="1"></stop><stop offset="88.46153846153847%" stop-color="#c1b6ef" stop-opacity="1"></stop></linearGradient></defs><defs><linearGradient id="grad2_4" x1="0%" y1="0%" x2="52%" y2="100%"><stop offset="11.538461538461538%" stop-color="#d6cef5" stop-opacity="1"></stop><stop offset="88.46153846153847%" stop-color="#ebe6fa" stop-opacity="1"></stop></linearGradient></defs><defs><linearGradient id="grad2_5" x1="0%" y1="0%" x2="52%" y2="100%"><stop offset="11.538461538461538%" stop-color="#ffffff" stop-opacity="1"></stop><stop offset="88.46153846153847%" stop-color="#ebe6fa" stop-opacity="1"></stop></linearGradient></defs><g transform="translate(2500, 0)"><path d="M0 1170C-71.3 1068.2 -142.7 966.3 -259.6 968.8C-376.5 971.3 -539.1 1078.2 -585 1013.2C-630.9 948.3 -560.3 711.6 -604.6 604.6C-648.9 497.5 -808.1 520.2 -800.2 462C-792.3 403.8 -617.3 264.9 -651 174.4C-684.8 84 -927.4 42 -1170 0L0 0Z" fill="#f5f2fc"></path><path d="M0 975C-59.4 890.1 -118.9 805.3 -216.3 807.4C-313.8 809.4 -449.2 898.5 -487.5 844.4C-525.8 790.3 -466.9 593 -503.8 503.8C-540.7 414.6 -673.4 433.5 -666.8 385C-660.3 336.5 -514.4 220.8 -542.5 145.4C-570.7 70 -772.8 35 -975 0L0 0Z" fill="#e1daf7"></path><path d="M0 780C-47.6 712.1 -95.1 644.2 -173.1 645.9C-251 647.6 -359.4 718.8 -390 675.5C-420.6 632.2 -373.5 474.4 -403.1 403.1C-432.6 331.7 -538.7 346.8 -533.5 308C-528.2 269.2 -411.5 176.6 -434 116.3C-456.5 56 -618.3 28 -780 0L0 0Z" fill="#ccc1f2"></path><path d="M0 585C-35.7 534.1 -71.3 483.2 -129.8 484.4C-188.3 485.7 -269.5 539.1 -292.5 506.6C-315.5 474.2 -280.1 355.8 -302.3 302.3C-324.4 248.8 -404.1 260.1 -400.1 231C-396.2 201.9 -308.6 132.5 -325.5 87.2C-342.4 42 -463.7 21 -585 0L0 0Z" fill="#b7aaec"></path><path d="M0 390C-23.8 356.1 -47.6 322.1 -86.5 322.9C-125.5 323.8 -179.7 359.4 -195 337.7C-210.3 316.1 -186.8 237.2 -201.5 201.5C-216.3 165.8 -269.4 173.4 -266.7 154C-264.1 134.6 -205.8 88.3 -217 58.1C-228.3 28 -309.1 14 -390 0L0 0Z" fill="#a192e6"></path><path d="M0 195C-11.9 178 -23.8 161.1 -43.3 161.5C-62.8 161.9 -89.8 179.7 -97.5 168.9C-105.2 158.1 -93.4 118.6 -100.8 100.8C-108.1 82.9 -134.7 86.7 -133.4 77C-132.1 67.3 -102.9 44.2 -108.5 29.1C-114.1 14 -154.6 7 -195 0L0 0Z" fill="#9587e3"></path></g><g transform="translate(0, 1300)"><path d="M0 -1170C49.9 -990.5 99.7 -811 221.3 -825.9C342.9 -840.7 536.2 -1050 576.5 -998.5C616.8 -947 504.2 -634.8 509.8 -509.8C515.4 -384.9 639.2 -447.3 776 -448C912.7 -448.7 1062.3 -387.8 1130.1 -302.8C1198 -217.9 1184 -108.9 1170 0L0 0Z" fill="#f5f2fc"></path><path d="M0 -975C41.5 -825.4 83.1 -675.8 184.4 -688.2C285.7 -700.6 446.8 -875 480.4 -832.1C514 -789.2 420.2 -529 424.9 -424.9C429.5 -320.7 532.7 -372.7 646.6 -373.3C760.6 -373.9 885.3 -323.1 941.8 -252.3C998.3 -181.6 986.6 -90.8 975 0L0 0Z" fill="#e1daf7"></path><path d="M0 -780C33.2 -660.3 66.5 -540.7 147.5 -550.6C228.6 -560.5 357.4 -700 384.3 -665.7C411.2 -631.4 336.1 -423.2 339.9 -339.9C343.6 -256.6 426.2 -298.2 517.3 -298.7C608.5 -299.1 708.2 -258.5 753.4 -201.9C798.6 -145.2 789.3 -72.6 780 0L0 0Z" fill="#ccc1f2"></path><path d="M0 -585C24.9 -495.2 49.9 -405.5 110.6 -412.9C171.4 -420.4 268.1 -525 288.2 -499.3C308.4 -473.5 252.1 -317.4 254.9 -254.9C257.7 -192.4 319.6 -223.6 388 -224C456.3 -224.4 531.2 -193.9 565.1 -151.4C599 -108.9 592 -54.5 585 0L0 0Z" fill="#b7aaec"></path><path d="M0 -390C16.6 -330.2 33.2 -270.3 73.8 -275.3C114.3 -280.2 178.7 -350 192.2 -332.8C205.6 -315.7 168.1 -211.6 169.9 -169.9C171.8 -128.3 213.1 -149.1 258.7 -149.3C304.2 -149.6 354.1 -129.3 376.7 -100.9C399.3 -72.6 394.7 -36.3 390 0L0 0Z" fill="#a192e6"></path><path d="M0 -195C8.3 -165.1 16.6 -135.2 36.9 -137.6C57.1 -140.1 89.4 -175 96.1 -166.4C102.8 -157.8 84 -105.8 85 -85C85.9 -64.1 106.5 -74.5 129.3 -74.7C152.1 -74.8 177.1 -64.6 188.4 -50.5C199.7 -36.3 197.3 -18.2 195 0L0 0Z" fill="#9587e3"></path></g></svg>