<svg id="visual" viewBox="0 0 2500 1300" width="2500" height="1300" xmlns="http://www.w3.org/2000/svg" xmlns:xlink="http://www.w3.org/1999/xlink" version="1.1"><path d="M0 131L37.8 124.5C75.7 118 151.3 105 227.2 100.7C303 96.3 379 100.7 454.8 122.3C530.7 144 606.3 183 682 189.5C757.7 196 833.3 170 909 150.5C984.7 131 1060.3 118 1136.2 120.2C1212 122.3 1288 139.7 1363.8 165.7C1439.7 191.7 1515.3 226.3 1591 243.7C1666.7 261 1742.3 261 1818 239.3C1893.7 217.7 1969.3 174.3 2045.2 165.7C2121 157 2197 183 2272.8 204.7C2348.7 226.3 2424.3 243.7 2462.2 252.3L2500 261L2500 0L2462.2 0C2424.3 0 2348.7 0 2272.8 0C2197 0 2121 0 2045.2 0C1969.3 0 1893.7 0 1818 0C1742.3 0 1666.7 0 1591 0C1515.3 0 1439.7 0 1363.8 0C1288 0 1212 0 1136.2 0C1060.3 0 984.7 0 909 0C833.3 0 757.7 0 682 0C606.3 0 530.7 0 454.8 0C379 0 303 0 227.2 0C151.3 0 75.7 0 37.8 0L0 0Z" fill="#b6aced"></path><path d="M0 742L37.8 672.7C75.7 603.3 151.3 464.7 227.2 438.7C303 412.7 379 499.3 454.8 518.8C530.7 538.3 606.3 490.7 682 516.7C757.7 542.7 833.3 642.3 909 627.2C984.7 612 1060.3 482 1136.2 447.3C1212 412.7 1288 473.3 1363.8 538.3C1439.7 603.3 1515.3 672.7 1591 674.8C1666.7 677 1742.3 612 1818 581.7C1893.7 551.3 1969.3 555.7 2045.2 573C2121 590.3 2197 620.7 2272.8 618.5C2348.7 616.3 2424.3 581.7 2462.2 564.3L2500 547L2500 259L2462.2 250.3C2424.3 241.7 2348.7 224.3 2272.8 202.7C2197 181 2121 155 2045.2 163.7C1969.3 172.3 1893.7 215.7 1818 237.3C1742.3 259 1666.7 259 1591 241.7C1515.3 224.3 1439.7 189.7 1363.8 163.7C1288 137.7 1212 120.3 1136.2 118.2C1060.3 116 984.7 129 909 148.5C833.3 168 757.7 194 682 187.5C606.3 181 530.7 142 454.8 120.3C379 98.7 303 94.3 227.2 98.7C151.3 103 75.7 116 37.8 122.5L0 129Z" fill="#a699e8"></path><path d="M0 833L37.8 765.8C75.7 698.7 151.3 564.3 227.2 536.2C303 508 379 586 454.8 616.3C530.7 646.7 606.3 629.3 682 674.8C757.7 720.3 833.3 828.7 909 804.8C984.7 781 1060.3 625 1136.2 579.5C1212 534 1288 599 1363.8 661.8C1439.7 724.7 1515.3 785.3 1591 798.3C1666.7 811.3 1742.3 776.7 1818 748.5C1893.7 720.3 1969.3 698.7 2045.2 716C2121 733.3 2197 789.7 2272.8 787.5C2348.7 785.3 2424.3 724.7 2462.2 694.3L2500 664L2500 545L2462.2 562.3C2424.3 579.7 2348.7 614.3 2272.8 616.5C2197 618.7 2121 588.3 2045.2 571C1969.3 553.7 1893.7 549.3 1818 579.7C1742.3 610 1666.7 675 1591 672.8C1515.3 670.7 1439.7 601.3 1363.8 536.3C1288 471.3 1212 410.7 1136.2 445.3C1060.3 480 984.7 610 909 625.2C833.3 640.3 757.7 540.7 682 514.7C606.3 488.7 530.7 536.3 454.8 516.8C379 497.3 303 410.7 227.2 436.7C151.3 462.7 75.7 601.3 37.8 670.7L0 740Z" fill="#9587e3"></path><path d="M0 963L37.8 921.8C75.7 880.7 151.3 798.3 227.2 815.7C303 833 379 950 454.8 973.8C530.7 997.7 606.3 928.3 682 926.2C757.7 924 833.3 989 909 976C984.7 963 1060.3 872 1136.2 826.5C1212 781 1288 781 1363.8 837.3C1439.7 893.7 1515.3 1006.3 1591 1021.5C1666.7 1036.7 1742.3 954.3 1818 917.5C1893.7 880.7 1969.3 889.3 2045.2 930.5C2121 971.7 2197 1045.3 2272.8 1034.5C2348.7 1023.7 2424.3 928.3 2462.2 880.7L2500 833L2500 662L2462.2 692.3C2424.3 722.7 2348.7 783.3 2272.8 785.5C2197 787.7 2121 731.3 2045.2 714C1969.3 696.7 1893.7 718.3 1818 746.5C1742.3 774.7 1666.7 809.3 1591 796.3C1515.3 783.3 1439.7 722.7 1363.8 659.8C1288 597 1212 532 1136.2 577.5C1060.3 623 984.7 779 909 802.8C833.3 826.7 757.7 718.3 682 672.8C606.3 627.3 530.7 644.7 454.8 614.3C379 584 303 506 227.2 534.2C151.3 562.3 75.7 696.7 37.8 763.8L0 831Z" fill="#8576d5"></path><path d="M0 1301L37.8 1301C75.7 1301 151.3 1301 227.2 1301C303 1301 379 1301 454.8 1301C530.7 1301 606.3 1301 682 1301C757.7 1301 833.3 1301 909 1301C984.7 1301 1060.3 1301 1136.2 1301C1212 1301 1288 1301 1363.8 1301C1439.7 1301 1515.3 1301 1591 1301C1666.7 1301 1742.3 1301 1818 1301C1893.7 1301 1969.3 1301 2045.2 1301C2121 1301 2197 1301 2272.8 1301C2348.7 1301 2424.3 1301 2462.2 1301L2500 1301L2500 831L2462.2 878.7C2424.3 926.3 2348.7 1021.7 2272.8 1032.5C2197 1043.3 2121 969.7 2045.2 928.5C1969.3 887.3 1893.7 878.7 1818 915.5C1742.3 952.3 1666.7 1034.7 1591 1019.5C1515.3 1004.3 1439.7 891.7 1363.8 835.3C1288 779 1212 779 1136.2 824.5C1060.3 870 984.7 961 909 974C833.3 987 757.7 922 682 924.2C606.3 926.3 530.7 995.7 454.8 971.8C379 948 303 831 227.2 813.7C151.3 796.3 75.7 878.7 37.8 919.8L0 961Z" fill="#7565c8"></path></svg>