<svg id="visual" viewBox="0 0 2500 1300" width="2500" height="1300" xmlns="http://www.w3.org/2000/svg" xmlns:xlink="http://www.w3.org/1999/xlink" version="1.1"><rect x="0" y="0" width="2500" height="1300" fill="#ffffff"></rect><path d="M946 1300L939.3 1278.3C932.7 1256.7 919.3 1213.3 953.3 1170C987.3 1126.7 1068.7 1083.3 1095.8 1040C1123 996.7 1096 953.3 1036 910C976 866.7 883 823.3 894.3 780C905.7 736.7 1021.3 693.3 1100.8 650C1180.3 606.7 1223.7 563.3 1199.3 520C1175 476.7 1083 433.3 1063.8 390C1044.7 346.7 1098.3 303.3 1142 260C1185.7 216.7 1219.3 173.3 1213.5 130C1207.7 86.7 1162.3 43.3 1139.7 21.7L1117 0L2500 0L2500 21.7C2500 43.3 2500 86.7 2500 130C2500 173.3 2500 216.7 2500 260C2500 303.3 2500 346.7 2500 390C2500 433.3 2500 476.7 2500 520C2500 563.3 2500 606.7 2500 650C2500 693.3 2500 736.7 2500 780C2500 823.3 2500 866.7 2500 910C2500 953.3 2500 996.7 2500 1040C2500 1083.3 2500 1126.7 2500 1170C2500 1213.3 2500 1256.7 2500 1278.3L2500 1300Z" fill="#eeeeee"></path><path d="M1372 1300L1390 1278.3C1408 1256.7 1444 1213.3 1462.5 1170C1481 1126.7 1482 1083.3 1490 1040C1498 996.7 1513 953.3 1491.3 910C1469.7 866.7 1411.3 823.3 1358.7 780C1306 736.7 1259 693.3 1262.3 650C1265.7 606.7 1319.3 563.3 1312.7 520C1306 476.7 1239 433.3 1237.7 390C1236.3 346.7 1300.7 303.3 1317.5 260C1334.3 216.7 1303.7 173.3 1306.8 130C1310 86.7 1347 43.3 1365.5 21.7L1384 0L2500 0L2500 21.7C2500 43.3 2500 86.7 2500 130C2500 173.3 2500 216.7 2500 260C2500 303.3 2500 346.7 2500 390C2500 433.3 2500 476.7 2500 520C2500 563.3 2500 606.7 2500 650C2500 693.3 2500 736.7 2500 780C2500 823.3 2500 866.7 2500 910C2500 953.3 2500 996.7 2500 1040C2500 1083.3 2500 1126.7 2500 1170C2500 1213.3 2500 1256.7 2500 1278.3L2500 1300Z" fill="#ded9ec"></path><path d="M1420 1300L1404.3 1278.3C1388.7 1256.7 1357.3 1213.3 1374.3 1170C1391.3 1126.7 1456.7 1083.3 1523.8 1040C1591 996.7 1660 953.3 1667.5 910C1675 866.7 1621 823.3 1572.2 780C1523.3 736.7 1479.7 693.3 1453.8 650C1428 606.7 1420 563.3 1454.2 520C1488.3 476.7 1564.7 433.3 1619.3 390C1674 346.7 1707 303.3 1662.2 260C1617.3 216.7 1494.7 173.3 1478.7 130C1462.7 86.7 1553.3 43.3 1598.7 21.7L1644 0L2500 0L2500 21.7C2500 43.3 2500 86.7 2500 130C2500 173.3 2500 216.7 2500 260C2500 303.3 2500 346.7 2500 390C2500 433.3 2500 476.7 2500 520C2500 563.3 2500 606.7 2500 650C2500 693.3 2500 736.7 2500 780C2500 823.3 2500 866.7 2500 910C2500 953.3 2500 996.7 2500 1040C2500 1083.3 2500 1126.7 2500 1170C2500 1213.3 2500 1256.7 2500 1278.3L2500 1300Z" fill="#cdc3ea"></path><path d="M1948 1300L1902.8 1278.3C1857.7 1256.7 1767.3 1213.3 1717.8 1170C1668.3 1126.7 1659.7 1083.3 1701.5 1040C1743.3 996.7 1835.7 953.3 1876.8 910C1918 866.7 1908 823.3 1903.7 780C1899.3 736.7 1900.7 693.3 1878.7 650C1856.7 606.7 1811.3 563.3 1817.7 520C1824 476.7 1882 433.3 1886.8 390C1891.7 346.7 1843.3 303.3 1825.3 260C1807.3 216.7 1819.7 173.3 1845.3 130C1871 86.7 1910 43.3 1929.5 21.7L1949 0L2500 0L2500 21.7C2500 43.3 2500 86.7 2500 130C2500 173.3 2500 216.7 2500 260C2500 303.3 2500 346.7 2500 390C2500 433.3 2500 476.7 2500 520C2500 563.3 2500 606.7 2500 650C2500 693.3 2500 736.7 2500 780C2500 823.3 2500 866.7 2500 910C2500 953.3 2500 996.7 2500 1040C2500 1083.3 2500 1126.7 2500 1170C2500 1213.3 2500 1256.7 2500 1278.3L2500 1300Z" fill="#bbafe8"></path><path d="M2004 1300L2023.3 1278.3C2042.7 1256.7 2081.3 1213.3 2063.5 1170C2045.7 1126.7 1971.3 1083.3 1971.5 1040C1971.7 996.7 2046.3 953.3 2071.7 910C2097 866.7 2073 823.3 2050 780C2027 736.7 2005 693.3 1984.3 650C1963.7 606.7 1944.3 563.3 1944.8 520C1945.3 476.7 1965.7 433.3 1951.5 390C1937.3 346.7 1888.7 303.3 1860.3 260C1832 216.7 1824 173.3 1865.7 130C1907.3 86.7 1998.7 43.3 2044.3 21.7L2090 0L2500 0L2500 21.7C2500 43.3 2500 86.7 2500 130C2500 173.3 2500 216.7 2500 260C2500 303.3 2500 346.7 2500 390C2500 433.3 2500 476.7 2500 520C2500 563.3 2500 606.7 2500 650C2500 693.3 2500 736.7 2500 780C2500 823.3 2500 866.7 2500 910C2500 953.3 2500 996.7 2500 1040C2500 1083.3 2500 1126.7 2500 1170C2500 1213.3 2500 1256.7 2500 1278.3L2500 1300Z" fill="#a99be6"></path><path d="M2295 1300L2294.3 1278.3C2293.7 1256.7 2292.3 1213.3 2277.8 1170C2263.3 1126.7 2235.7 1083.3 2226 1040C2216.3 996.7 2224.7 953.3 2225.3 910C2226 866.7 2219 823.3 2207.8 780C2196.7 736.7 2181.3 693.3 2185.7 650C2190 606.7 2214 563.3 2210.2 520C2206.3 476.7 2174.7 433.3 2168.2 390C2161.7 346.7 2180.3 303.3 2173.5 260C2166.7 216.7 2134.3 173.3 2115.2 130C2096 86.7 2090 43.3 2087 21.7L2084 0L2500 0L2500 21.7C2500 43.3 2500 86.7 2500 130C2500 173.3 2500 216.7 2500 260C2500 303.3 2500 346.7 2500 390C2500 433.3 2500 476.7 2500 520C2500 563.3 2500 606.7 2500 650C2500 693.3 2500 736.7 2500 780C2500 823.3 2500 866.7 2500 910C2500 953.3 2500 996.7 2500 1040C2500 1083.3 2500 1126.7 2500 1170C2500 1213.3 2500 1256.7 2500 1278.3L2500 1300Z" fill="#9587e3"></path></svg>